<svg xmlns="http://www.w3.org/2000/svg" viewBox="0 0 282.19 305.23"><defs><style>.cls-1{fill:#0038a7;}.cls-2{fill:#fefe00;}.cls-3{fill:#209ac6;}.cls-4{fill:#ce1326;}.cls-5{fill:#030300;}</style></defs><g id="Layer_2" data-name="Layer 2"><g id="Layer_2-2" data-name="Layer 2"><path class="cls-1" d="M141.53,0c.15.3.48.31.74.43q66.12,29.16,132.27,58.3c3.34,1.47,5.87,3.66,7,7.16a10.85,10.85,0,0,1-3.09,12c-3.66,3.36-8,4-12.53,2-11-4.78-21.87-9.62-32.8-14.44L141.88,25.21a1.48,1.48,0,0,0-1.33.07L63.9,59Q40.11,69.44,16.32,79.89A11.43,11.43,0,1,1,6.91,59.07L38.83,45,140.53.32c.2-.08.44-.1.56-.32Z"/><path class="cls-1" d="M266.68,173.78c-.17,25.2-.41,50.4-.38,75.61,0,3.05.15,6.11-.05,9.16a47,47,0,0,1-4.11,16.22c-4.49,10.05-11.14,18.28-20.65,24a38.21,38.21,0,0,1-17.74,5.47c-9.95.56-19.92.66-29.88.78q-23.44.29-46.9.17-19.53-.1-39.06-.3-15.91-.19-31.83-.56c-8-.17-16-.42-24.06-.87-4.46-.25-8.84-.81-13-2.7a34.41,34.41,0,0,1-12.63-10.09,55.06,55.06,0,0,1-10-20.92A75.74,75.74,0,0,1,14,251Q14,198,13.81,145.1q-.06-28.66-.13-57.34a1,1,0,0,1,.77-1.11Q47,73.32,79.45,60l61.2-25.17a1.59,1.59,0,0,1,1.33,0q59.7,25.72,119.39,51.41c1.77.77,3.54,1.56,5.33,2.28a1.05,1.05,0,0,1,.76,1.21q-.21,18.67-.36,37.35Zm-95.61-69.34-.14,0a68.1,68.1,0,0,0-41.88-7,64.66,64.66,0,0,0-25.35,9.19C85.6,118,74.75,134.22,71.42,155.38A65.92,65.92,0,0,0,72.09,179a66.76,66.76,0,0,0,14.84,30.43A67.56,67.56,0,0,0,132,233.35a68.26,68.26,0,0,0,50.8-15.27c15-12.59,23.29-28.68,24.78-48.21a66.74,66.74,0,0,0-3.53-27,72.79,72.79,0,0,0-5.32-11.77,28.1,28.1,0,0,0,3.54-2.58,19.74,19.74,0,0,0,6.49-17.06,18.77,18.77,0,0,0-5.11-11.31,20,20,0,0,0-30.6,1.35C172.37,102.45,171.74,103.46,171.07,104.44Zm79.78,66.1h0V150.71c0-.92,0-.94-.81-.58a41.24,41.24,0,0,0-10.15,6.28,20.85,20.85,0,0,0-7,11.18,33.59,33.59,0,0,0-.75,9.44c.15,2.95.39,5.88.68,8.81.27,2.74.57,5.48.67,8.22a61,61,0,0,1-1.16,16.34,45.41,45.41,0,0,1-5.14,13.5,77.58,77.58,0,0,1-9.41,12.44c-4,4.3-8.21,8.31-13.44,11.08-2.92,1.55-6,2.71-9.38,2.21-.86-.12-1.8-.08-2.42-.91a2.48,2.48,0,0,1-.37-2.26,7.59,7.59,0,0,1,1.91-3.06,80,80,0,0,1,7.66-6.71,27.88,27.88,0,0,0,5.28-5,53.63,53.63,0,0,0,5.16-8.69,19.16,19.16,0,0,0,2.13-8.88,9,9,0,0,0-2.55-6c-.45-.47-.65-.4-1.05.08-2,2.33-3.78,4.79-5.94,7-2.79,2.8-5.65,5.51-8.66,8.08s-5.88,5.17-9,7.59a54.4,54.4,0,0,1-10.34,6.72c-2.42,1.15-4.84,2.31-7.19,3.6a51,51,0,0,0-13,9.73,33.31,33.31,0,0,0-6.9,11.21c-2.17,5.84-2.77,11.94-3,18.09-.12,3.63.06,7.25.26,10.87,0,.42.16.55.57.55,1.09,0,2.18.08,3.27.11,3,.1,6.05.22,9.07.31,3.62.1,7.25.16,10.87.3,2.35.1,4.71,0,7.07.13,3.79.17,7.6.07,11.39.14,4.42.09,8.84.14,13.27-.06,2.8-.14,5.6,0,8.41-.14,3.32-.13,6.64-.27,9.95-.46a21.06,21.06,0,0,0,9.4-3,39,39,0,0,0,10.43-9.22,51.11,51.11,0,0,0,8.86-15.74A41.45,41.45,0,0,0,252,249.56c0-1.9-.12-3.81-.2-5.72-.14-3.47-.18-6.94-.32-10.41-.1-2.31,0-4.62-.13-6.93-.16-2.9,0-5.8-.15-8.71-.17-3.67-.05-7.35-.14-11-.16-6,0-12-.16-18S250.85,176.61,250.85,170.54ZM29.38,162c.11,4.82-.12,10.83-.14,16.84,0,5.83.05,11.67-.1,17.51-.15,5.58,0,11.17-.18,16.76-.1,2.73-.05,5.46-.12,8.19-.12,5-.14,10-.32,15-.11,2.92-.13,5.85-.19,8.78,0,.1,0,.2,0,.3a49.51,49.51,0,0,0,.21,10.47A44.86,44.86,0,0,0,32.4,268.6a49.24,49.24,0,0,0,13.37,17.47,28.2,28.2,0,0,0,8.41,4.84c2.73,1,5.59,1,8.42,1.21,2.52.17,5.05.24,7.58.3,3.08.08,6.16.07,9.23.13,5.94.12,11.88,0,17.81-.1,2-.05,4,0,6-.11,2.7-.13,5.41,0,8.11-.18,1.66-.09,3.33-.07,5-.12l11.16-.34c1.66-.05,3.32-.12,5-.15.42,0,.51-.16.58-.56a36.83,36.83,0,0,0,.21-4.45,98.07,98.07,0,0,0-.22-11.24,56.84,56.84,0,0,0-1.78-10.44,34.48,34.48,0,0,0-12-18,66.83,66.83,0,0,0-12.64-7.81A73.76,73.76,0,0,1,99,235.11c-5.88-3.76-11-8.5-16.25-13-1.61-1.37-3.11-2.85-4.64-4.3a51.42,51.42,0,0,1-4.77-4.91c-1.29-1.6-2.64-3.15-3.94-4.75-.4-.5-.7-.47-1.12,0a9.37,9.37,0,0,0-1.75,2.66,11.2,11.2,0,0,0-.36,7.14A33.1,33.1,0,0,0,70,226.87a31.74,31.74,0,0,0,8.27,9.74,58.38,58.38,0,0,1,7.94,7,6.82,6.82,0,0,1,1.88,3.32,2.13,2.13,0,0,1-1.42,2.44,9.14,9.14,0,0,1-2.93.44,16.38,16.38,0,0,1-6.37-1.58,41.77,41.77,0,0,1-11-7.8,78.69,78.69,0,0,1-8.84-9.85A54.42,54.42,0,0,1,51.33,221a51.76,51.76,0,0,1-4.79-21.45q0-4.09.26-8.18c.19-2.55.44-5.08.68-7.62.21-2.34.41-4.69.53-7a35.42,35.42,0,0,0-.41-7.27,21.43,21.43,0,0,0-7.53-13.22,42.57,42.57,0,0,0-9.93-6.1c-.74-.35-.76-.34-.76.5Z"/><path class="cls-2" d="M198.77,131.11a72.79,72.79,0,0,1,5.32,11.77,66.74,66.74,0,0,1,3.53,27c-1.49,19.53-9.81,35.62-24.78,48.21A68.26,68.26,0,0,1,132,233.35a67.56,67.56,0,0,1-45.11-23.9A66.76,66.76,0,0,1,72.09,179a65.92,65.92,0,0,1-.67-23.64c3.33-21.16,14.18-37.4,32.28-48.77a64.66,64.66,0,0,1,25.35-9.19,68.1,68.1,0,0,1,41.88,7l.14,0c.06.27-.11.47-.22.69a20.08,20.08,0,0,0-1.89,8.79,24.35,24.35,0,0,0,.8,5.51A54.84,54.84,0,0,0,163,116a4.77,4.77,0,0,0-6.71,3.72,4.72,4.72,0,0,0,2.8,5c1.27.58,2.54,1.13,3.76,1.79a42.73,42.73,0,0,1,17.28,17,4.73,4.73,0,0,0,6.58,1.92,4.79,4.79,0,0,0,1.66-6.66,61.69,61.69,0,0,0-3.44-5.4c.22,0,.45,0,.67,0a20.07,20.07,0,0,0,6.74,0A22.16,22.16,0,0,0,198.77,131.11ZM128,173.67c2.41-1.42,2.73-3.34,2.43-5.58s-1.84-3.59-4-4.16a8.77,8.77,0,0,0-2.28-.31c-3.4,0-6.8,0-10.2,0-.51,0-.62.16-.62.63q0,10.32,0,20.64c0,.51.13.67.66.67,3.25,0,6.5,0,9.76,0a10.82,10.82,0,0,0,2.93-.43,5.89,5.89,0,0,0,4.55-5.2C131.44,177.53,131.19,175.25,128,173.67Zm35.26,9.42c.14.65.29,1.29.41,1.94.07.33.17.52.57.5.69,0,1.39,0,2.09,0,.32,0,.5-.07.5-.45q0-5.47,0-11c0-.35-.13-.47-.48-.47h-8.13c-.35,0-.47.14-.47.48q0,1.38,0,2.76c0,.42.13.57.55.56,1.27,0,2.54,0,3.8,0,.55,0,.59.16.48.64a5.17,5.17,0,0,1-4.15,4,5.49,5.49,0,0,1-6-2.55,10.11,10.11,0,0,1-.06-9.91c1.05-2,3-2.75,5.2-2.62s3.77,1,4.48,3.15a.41.41,0,0,0,.49.32c1.24,0,2.48,0,3.73,0,.35,0,.47-.07.39-.46a8,8,0,0,0-2.08-4.13,9.86,9.86,0,0,0-6.79-2.8c-3.58-.2-6.67.8-9,3.73a11.78,11.78,0,0,0-2.32,7,13.22,13.22,0,0,0,2.31,8.52c3.31,4.6,11.32,5.24,14.24.81C163.1,183.12,163.17,183.12,163.26,183.09ZM150.7,137.77a5.06,5.06,0,0,0-2.19-1.83A6.44,6.44,0,0,0,141,138a11.11,11.11,0,0,0-.36,11.25,6.26,6.26,0,0,0,9.93,1s.08,0,.15,0a13.21,13.21,0,0,1-.12,2.74,2.4,2.4,0,0,1-1.69,2.16c-1.31.34-2.65.54-3.84-.39a1.18,1.18,0,0,1-.39-.54c-.12-.39-.37-.46-.73-.45-1.12,0-2.24,0-3.35,0-.84,0-.9.07-.7.9a4.7,4.7,0,0,0,3.29,3.55,11.92,11.92,0,0,0,8.52-.3,4.75,4.75,0,0,0,2.95-3.75,16.26,16.26,0,0,0,.26-3.11c0-4.75,0-9.5,0-14.24,0-.56-.09-.82-.72-.76a17.61,17.61,0,0,1-1.78,0c-1.52,0-1.52,0-1.65,1.48C150.81,137.64,150.77,137.67,150.7,137.77Zm-48.35,3.49c0,3.45,0,6.9,0,10.35,0,.53.14.69.67.67q1.63-.06,3.27,0c.51,0,.63-.17.62-.64,0-2.13,0-4.27,0-6.41,0-.56.12-.77.73-.75,1.74,0,3.48,0,5.21,0,3.17-.09,5.32-1.74,6-4.58a10.17,10.17,0,0,0,.29-3c-.18-3.62-1.84-5.74-5-6.38a10.33,10.33,0,0,0-2.08-.2c-3,0-6,0-9,0-.57,0-.71.16-.7.71C102.36,134.45,102.35,137.85,102.35,141.26Zm29.14,9.11.23,1.16a.8.8,0,0,0,1,.75c1.09-.06,2.19,0,3.28,0,.18,0,.43.11.52-.15a.56.56,0,0,0-.1-.63,2.68,2.68,0,0,1-.77-2.38c0-2.91,0-5.82,0-8.73a3.93,3.93,0,0,0-2.95-4.22,11.19,11.19,0,0,0-6.89-.23,4.91,4.91,0,0,0-3.76,4.64c0,.45.1.62.57.61,1,0,2,0,3,0,.33,0,.49-.08.51-.45a1.69,1.69,0,0,1,1.13-1.54,4.8,4.8,0,0,1,3.28,0,1.41,1.41,0,0,1,.93,1.4,1.22,1.22,0,0,1-.79,1.22,6,6,0,0,1-1.71.49,26.73,26.73,0,0,0-3.88.7c-2.65.85-3.74,2.4-3.59,5.18.16,3,1.95,4.73,5,4.69A5.91,5.91,0,0,0,131.49,150.37Zm-29,24.11c0,3.48,0,7,0,10.43,0,.49.13.64.62.62,1.1,0,2.19,0,3.28,0,.51,0,.62-.15.62-.63,0-1.86,0-3.72,0-5.59,0-5,0-10,0-15,0-.58-.14-.77-.74-.74-1,0-2.08,0-3.13,0-.54,0-.65.17-.65.68C102.46,167.67,102.45,171.08,102.45,174.48Zm38.65.15c0-3.45,0-6.9,0-10.36,0-.5-.1-.7-.65-.68-1.09,0-2.18,0-3.27,0-.47,0-.59.12-.59.58q0,10.4,0,20.79c0,.5.18.57.6.56,1.07,0,2.14,0,3.21,0,.55,0,.71-.13.71-.7C141.09,181.44,141.1,178,141.1,174.63Zm7.7,31.6-.15.05c-1.31-2.21-2.68-4.4-3.9-6.66a1.92,1.92,0,0,0-2.14-1.19c-.53,0-.65.17-.64.68,0,2.88,0,5.76,0,8.64,0,1.26,0,1.24,1.24,1.25.46,0,.58-.12.58-.59,0-1.86,0-3.72,0-5.58V201c.26.41.41.63.54.86l4,6.71a2.62,2.62,0,0,0,2.22.38.54.54,0,0,0,.07-.34q0-4.84,0-9.69c0-.32-.11-.45-.43-.43a3,3,0,0,1-.67,0c-.58-.09-.74.13-.73.72C148.82,201.52,148.8,203.88,148.8,206.23Zm6-2.49v4.69c0,.31,0,.58.43.56,1.51,0,3,0,4.54-.09a3.86,3.86,0,0,0,3.52-2.76,7.67,7.67,0,0,0,.24-4.11,3.93,3.93,0,0,0-4.17-3.55c-1.34,0-2.68,0-4,0-.51,0-.55.2-.55.61C154.82,200.61,154.81,202.18,154.81,203.74Zm-17-1.28h0c0-1.17,0-2.33,0-3.5,0-.2.12-.51-.22-.53a3.39,3.39,0,0,0-1.46,0c-.33.14-.12.68-.13,1,0,2,0,4,0,6a2.07,2.07,0,0,1-2.36,2.26c-1.45,0-2.16-.74-2.24-2.3,0-.22,0-.45,0-.67v-5.07c0-1.39,0-1.37-1.43-1.29-.37,0-.47.13-.46.48,0,2.26,0,4.52,0,6.78a3.33,3.33,0,0,0,2.41,3.38,6.05,6.05,0,0,0,3.16.1,3.31,3.31,0,0,0,2.75-3.33C137.84,204.7,137.81,203.58,137.81,202.46Zm-18.91,1.19v4.1c0,1.26,0,1.24,1.26,1.24.47,0,.58-.14.57-.59,0-1.17,0-2.34,0-3.5,0-.46.12-.61.58-.59,1.19,0,2.39,0,3.58,0,.61,0,.64-.26.6-.7s.17-.88-.57-.82a19.24,19.24,0,0,1-2,0c-.69,0-1.61.23-2-.11s-.08-1.36-.16-2.06c-.06-.54.1-.73.68-.71,1.39,0,2.79,0,4.18,0,.71,0,.57-.4.59-.81s0-.74-.58-.72c-2,0-4.08,0-6.11,0-.46,0-.59.13-.58.59C118.91,200.57,118.9,202.11,118.9,203.65Zm43.88-61.53c-1.24,0-2.48,0-3.72,0-.42,0-.55.13-.54.55,0,1,0,2,0,3.05,0,.34.1.48.46.48h7.44c.36,0,.48-.12.47-.47,0-1,0-2,0-3,0-.47-.11-.64-.61-.63C165.12,142.15,164,142.12,162.78,142.12Z"/><path class="cls-3" d="M250.85,170.54c0,6.07-.08,12.13,0,18.19s0,12,.16,18c.09,3.67,0,7.35.14,11,.13,2.91,0,5.81.15,8.71.12,2.31,0,4.62.13,6.93.14,3.47.18,6.94.32,10.41.08,1.91.17,3.82.2,5.72a41.45,41.45,0,0,1-2.38,14.37,51.11,51.11,0,0,1-8.86,15.74,39,39,0,0,1-10.43,9.22,21.06,21.06,0,0,1-9.4,3c-3.31.19-6.63.33-9.95.46-2.81.12-5.61,0-8.41.14-4.43.2-8.85.15-13.27.06-3.79-.07-7.6,0-11.39-.14-2.36-.1-4.72,0-7.07-.13-3.62-.14-7.25-.2-10.87-.3-3-.09-6-.21-9.07-.31-1.09,0-2.18-.11-3.27-.11-.41,0-.55-.13-.57-.55-.2-3.62-.38-7.24-.26-10.87.2-6.15.8-12.25,3-18.09a33.31,33.31,0,0,1,6.9-11.21,51,51,0,0,1,13-9.73c2.35-1.29,4.77-2.45,7.19-3.6a54.4,54.4,0,0,0,10.34-6.72c3.08-2.42,6-5.05,9-7.59s5.87-5.28,8.66-8.08c2.16-2.16,4-4.62,5.94-7,.4-.48.6-.55,1.05-.08a9,9,0,0,1,2.55,6,19.16,19.16,0,0,1-2.13,8.88,53.63,53.63,0,0,1-5.16,8.69,27.88,27.88,0,0,1-5.28,5,80,80,0,0,0-7.66,6.71,7.59,7.59,0,0,0-1.91,3.06,2.48,2.48,0,0,0,.37,2.26c.62.83,1.56.79,2.42.91,3.41.5,6.46-.66,9.38-2.21,5.23-2.77,9.47-6.78,13.44-11.08a77.58,77.58,0,0,0,9.41-12.44,45.41,45.41,0,0,0,5.14-13.5,61,61,0,0,0,1.16-16.34c-.1-2.74-.4-5.48-.67-8.22-.29-2.93-.53-5.86-.68-8.81a33.59,33.59,0,0,1,.75-9.44,20.85,20.85,0,0,1,7-11.18A41.24,41.24,0,0,1,250,150.13c.8-.36.81-.34.81.58v19.83Z"/><path class="cls-3" d="M29.38,162V150.61c0-.84,0-.85.76-.5a42.57,42.57,0,0,1,9.93,6.1,21.43,21.43,0,0,1,7.53,13.22A35.42,35.42,0,0,1,48,176.7c-.12,2.34-.32,4.69-.53,7-.24,2.54-.49,5.07-.68,7.62q-.3,4.08-.26,8.18A51.76,51.76,0,0,0,51.33,221a54.42,54.42,0,0,0,6.15,9.56,78.69,78.69,0,0,0,8.84,9.85,41.77,41.77,0,0,0,11,7.8,16.38,16.38,0,0,0,6.37,1.58,9.14,9.14,0,0,0,2.93-.44,2.13,2.13,0,0,0,1.42-2.44,6.82,6.82,0,0,0-1.88-3.32,58.38,58.38,0,0,0-7.94-7A31.74,31.74,0,0,1,70,226.87a33.1,33.1,0,0,1-3.79-8.94,11.2,11.2,0,0,1,.36-7.14,9.37,9.37,0,0,1,1.75-2.66c.42-.45.72-.48,1.12,0,1.3,1.6,2.65,3.15,3.94,4.75a51.42,51.42,0,0,0,4.77,4.91c1.53,1.45,3,2.93,4.64,4.3,5.28,4.5,10.37,9.24,16.25,13a73.76,73.76,0,0,0,7.59,3.94,66.83,66.83,0,0,1,12.64,7.81,34.48,34.48,0,0,1,12,18,56.84,56.84,0,0,1,1.78,10.44,98.07,98.07,0,0,1,.22,11.24,36.83,36.83,0,0,1-.21,4.45c-.07.4-.16.55-.58.56-1.66,0-3.32.1-5,.15l-11.16.34c-1.66,0-3.33,0-5,.12-2.7.16-5.41,0-8.11.18-2,.1-4,.06-6,.11-5.93.13-11.87.22-17.81.1-3.07-.06-6.15-.05-9.23-.13-2.53-.06-5.06-.13-7.58-.3-2.83-.19-5.69-.24-8.42-1.21a28.2,28.2,0,0,1-8.41-4.84A49.24,49.24,0,0,1,32.4,268.6a44.86,44.86,0,0,1-3.87-12.76,49.51,49.51,0,0,1-.21-10.47c0-.1,0-.2,0-.3.06-2.93.08-5.86.19-8.78.18-5,.2-10,.32-15,.07-2.73,0-5.46.12-8.19.19-5.59,0-11.18.18-16.76.15-5.84.08-11.68.1-17.51C29.26,172.78,29.49,166.77,29.38,162Z"/><path class="cls-3" d="M169.76,119.43a24.35,24.35,0,0,1-.8-5.51,20.08,20.08,0,0,1,1.89-8.79c.11-.22.28-.42.22-.69.67-1,1.3-2,2-2.93a20,20,0,0,1,30.6-1.35,18.77,18.77,0,0,1,5.11,11.31,19.74,19.74,0,0,1-6.49,17.06,28.1,28.1,0,0,1-3.54,2.58,22.16,22.16,0,0,1-6.42,2.23,20.07,20.07,0,0,1-6.74,0c-.22,0-.45,0-.67,0L184,133a20,20,0,0,1-10.38-6.54A21.83,21.83,0,0,1,169.76,119.43Z"/><path class="cls-1" d="M169.76,119.43a21.83,21.83,0,0,0,3.88,7A20,20,0,0,0,184,133l.92.28a61.69,61.69,0,0,1,3.44,5.4,4.79,4.79,0,0,1-1.66,6.66,4.73,4.73,0,0,1-6.58-1.92,42.73,42.73,0,0,0-17.28-17c-1.22-.66-2.49-1.21-3.76-1.79a4.75,4.75,0,0,1,1-9A4.78,4.78,0,0,1,163,116,54.84,54.84,0,0,1,169.76,119.43Z"/><path class="cls-4" d="M128,173.67c3.19,1.58,3.44,3.86,3.21,6.22a5.89,5.89,0,0,1-4.55,5.2,10.82,10.82,0,0,1-2.93.43c-3.26,0-6.51,0-9.76,0-.53,0-.66-.16-.66-.67q0-10.32,0-20.64c0-.47.11-.64.62-.63,3.4,0,6.8,0,10.2,0a8.77,8.77,0,0,1,2.28.31c2.18.57,3.71,1.84,4,4.16S130.41,172.25,128,173.67Zm-6.94,2.17c-1.11,0-2,0-2.94,0-.35,0-.49.1-.49.46,0,1.62,0,3.23,0,4.84,0,.3.08.47.41.46,2.06-.05,4.13.13,6.17-.12a2.79,2.79,0,0,0,.06-5.51A22.58,22.58,0,0,0,121.06,175.84Zm0-8.4c-1,0-1.82.05-2.63,0s-.84.2-.8.83c.05.84,0,1.69,0,2.53,0,1.31,0,1.33,1.33,1.3a35,35,0,0,0,5.12-.13,2.06,2.06,0,0,0,1.9-2.19,2,2,0,0,0-1.85-2.21A19.35,19.35,0,0,0,121.06,167.44Z"/><path class="cls-4" d="M163.26,183.09c-.09,0-.16,0-.18.06-2.92,4.43-10.93,3.79-14.24-.81a13.22,13.22,0,0,1-2.31-8.52,11.78,11.78,0,0,1,2.32-7c2.28-2.93,5.37-3.93,9-3.73a9.86,9.86,0,0,1,6.79,2.8,8,8,0,0,1,2.08,4.13c.08.39,0,.46-.39.46-1.25,0-2.49,0-3.73,0a.41.41,0,0,1-.49-.32c-.71-2.15-2.32-3-4.48-3.15s-4.15.58-5.2,2.62a10.11,10.11,0,0,0,.06,9.91,5.49,5.49,0,0,0,6,2.55,5.17,5.17,0,0,0,4.15-4c.11-.48.07-.66-.48-.64-1.26,0-2.53,0-3.8,0-.42,0-.56-.14-.55-.56q0-1.38,0-2.76c0-.34.12-.48.47-.48h8.13c.35,0,.49.12.48.47q0,5.49,0,11c0,.38-.18.46-.5.45-.7,0-1.4,0-2.09,0-.4,0-.5-.17-.57-.5C163.55,184.38,163.4,183.74,163.26,183.09Z"/><path class="cls-4" d="M150.7,137.77c.07-.1.11-.13.11-.17.13-1.48.13-1.48,1.65-1.48a17.61,17.61,0,0,0,1.78,0c.63-.06.73.2.72.76,0,4.74,0,9.49,0,14.24a16.26,16.26,0,0,1-.26,3.11,4.75,4.75,0,0,1-2.95,3.75,11.92,11.92,0,0,1-8.52.3,4.7,4.7,0,0,1-3.29-3.55c-.2-.83-.14-.9.7-.9,1.11,0,2.23,0,3.35,0,.36,0,.61.06.73.45a1.18,1.18,0,0,0,.39.54c1.19.93,2.53.73,3.84.39a2.4,2.4,0,0,0,1.69-2.16,13.21,13.21,0,0,0,.12-2.74c-.07,0-.13,0-.15,0a6.26,6.26,0,0,1-9.93-1A11.11,11.11,0,0,1,141,138a6.44,6.44,0,0,1,7.48-2.1A5.06,5.06,0,0,1,150.7,137.77Zm-7,6.13a6.16,6.16,0,0,0,.59,3,3.09,3.09,0,0,0,2.85,1.71,2.86,2.86,0,0,0,2.81-1.48,6.72,6.72,0,0,0,0-6.37,3.3,3.3,0,0,0-5.72.2A5.92,5.92,0,0,0,143.74,143.9Z"/><path class="cls-4" d="M102.35,141.26c0-3.41,0-6.81,0-10.21,0-.55.13-.72.7-.71,3,0,6,0,9,0a10.33,10.33,0,0,1,2.08.2c3.15.64,4.81,2.76,5,6.38a10.17,10.17,0,0,1-.29,3c-.69,2.84-2.84,4.49-6,4.58-1.73.05-3.47.05-5.21,0-.61,0-.74.19-.73.75,0,2.14,0,4.28,0,6.41,0,.47-.11.66-.62.64q-1.64-.06-3.27,0c-.53,0-.68-.14-.67-.67C102.36,148.16,102.35,144.71,102.35,141.26Zm4.57-4V140c0,.28,0,.48.39.47,1.59,0,3.18,0,4.77-.05a2.38,2.38,0,0,0,2.44-2,5,5,0,0,0,.06-1.85,2.56,2.56,0,0,0-2.66-2.39c-1.49,0-3,0-4.47,0-.45,0-.55.16-.54.56C106.94,135.59,106.92,136.43,106.92,137.28Z"/><path class="cls-4" d="M131.49,150.37a5.91,5.91,0,0,1-5.06,2.48c-3.05,0-4.84-1.65-5-4.69-.15-2.78.94-4.33,3.59-5.18a26.73,26.73,0,0,1,3.88-.7,6,6,0,0,0,1.71-.49,1.22,1.22,0,0,0,.79-1.22,1.41,1.41,0,0,0-.93-1.4,4.8,4.8,0,0,0-3.28,0,1.69,1.69,0,0,0-1.13,1.54c0,.37-.18.45-.51.45-1,0-2,0-3,0-.47,0-.58-.16-.57-.61a4.91,4.91,0,0,1,3.76-4.64,11.19,11.19,0,0,1,6.89.23,3.93,3.93,0,0,1,2.95,4.22c0,2.91,0,5.82,0,8.73a2.68,2.68,0,0,0,.77,2.38.56.56,0,0,1,.1.63c-.09.26-.34.15-.52.15-1.09,0-2.19,0-3.28,0a.8.8,0,0,1-1-.75Zm0-4.77a3.93,3.93,0,0,1,0-.51c.07-.6-.07-.79-.7-.51a12.5,12.5,0,0,1-2.5.69,5,5,0,0,0-1.94.7,1.81,1.81,0,0,0-.76,1.88,1.69,1.69,0,0,0,1.14,1.51,3.6,3.6,0,0,0,4.49-2A5.55,5.55,0,0,0,131.49,145.6Z"/><path class="cls-4" d="M102.45,174.48c0-3.4,0-6.81,0-10.21,0-.51.11-.7.65-.68,1,0,2.09,0,3.13,0,.6,0,.74.16.74.74,0,5,0,10,0,15,0,1.87,0,3.73,0,5.59,0,.48-.11.65-.62.63-1.09,0-2.18,0-3.28,0-.49,0-.62-.13-.62-.62C102.46,181.43,102.45,178,102.45,174.48Z"/><path class="cls-4" d="M141.1,174.63c0,3.41,0,6.81,0,10.21,0,.57-.16.72-.71.7-1.07,0-2.14,0-3.21,0-.42,0-.6-.06-.6-.56q0-10.4,0-20.79c0-.46.12-.6.59-.58,1.09,0,2.18,0,3.27,0,.55,0,.65.18.65.68C141.09,167.73,141.1,171.18,141.1,174.63Z"/><path class="cls-5" d="M148.8,206.23c0-2.35,0-4.71,0-7.06,0-.59.15-.81.73-.72a3,3,0,0,0,.67,0c.32,0,.43.11.43.43q0,4.85,0,9.69a.54.54,0,0,1-.07.34,2.62,2.62,0,0,1-2.22-.38l-4-6.71c-.13-.23-.28-.45-.54-.86v1.87c0,1.86,0,3.72,0,5.58,0,.47-.12.59-.58.59-1.24,0-1.24,0-1.24-1.25,0-2.88,0-5.76,0-8.64,0-.51.11-.63.64-.68a1.92,1.92,0,0,1,2.14,1.19c1.22,2.26,2.59,4.45,3.9,6.66Z"/><path class="cls-5" d="M154.81,203.74c0-1.56,0-3.13,0-4.69,0-.41,0-.62.55-.61,1.34.05,2.68,0,4,0a3.93,3.93,0,0,1,4.17,3.55,7.67,7.67,0,0,1-.24,4.11,3.86,3.86,0,0,1-3.52,2.76c-1.51.11-3,0-4.54.09-.47,0-.44-.25-.43-.56Zm1.79-.06c0,.52,0,1,0,1.57,0,.7-.33,1.68.14,2.05s1.47.15,2.23.11a2.54,2.54,0,0,0,2.62-2,6.57,6.57,0,0,0,0-3.52,2.4,2.4,0,0,0-2.5-1.91c-.64,0-1.29,0-1.93,0-.41,0-.56.1-.55.53C156.62,201.55,156.6,202.62,156.6,203.68Z"/><path class="cls-5" d="M137.81,202.46c0,1.12,0,2.24,0,3.35a3.31,3.31,0,0,1-2.75,3.33,6.05,6.05,0,0,1-3.16-.1,3.33,3.33,0,0,1-2.41-3.38c0-2.26,0-4.52,0-6.78,0-.35.09-.46.46-.48,1.43-.08,1.43-.1,1.43,1.29v5.07c0,.22,0,.45,0,.67.08,1.56.79,2.28,2.24,2.3a2.07,2.07,0,0,0,2.36-2.26c.07-2,0-4,0-6,0-.35-.2-.89.13-1a3.39,3.39,0,0,1,1.46,0c.34,0,.22.33.22.53,0,1.17,0,2.33,0,3.5Z"/><path class="cls-5" d="M118.9,203.65c0-1.54,0-3.08,0-4.62,0-.46.12-.59.58-.59,2,0,4.07,0,6.11,0,.63,0,.6.3.58.72s.12.84-.59.81c-1.39-.06-2.79,0-4.18,0-.58,0-.74.17-.68.71.08.7-.3,1.65.16,2.06s1.33.1,2,.11a19.24,19.24,0,0,0,2,0c.74-.06.53.44.57.82s0,.73-.6.7c-1.19-.05-2.39,0-3.58,0-.46,0-.59.13-.58.59,0,1.16,0,2.33,0,3.5,0,.45-.1.6-.57.59-1.26,0-1.26,0-1.26-1.24Z"/><path class="cls-4" d="M162.78,142.12c1.17,0,2.34,0,3.5,0,.5,0,.63.16.61.63,0,1,0,2,0,3,0,.35-.11.47-.47.47H159c-.36,0-.46-.14-.46-.48,0-1,0-2,0-3.05,0-.42.12-.55.54-.55C160.3,142.14,161.54,142.12,162.78,142.12Z"/><path class="cls-2" d="M121.06,175.84a22.58,22.58,0,0,1,3.22.12,2.79,2.79,0,0,1-.06,5.51c-2,.25-4.11.07-6.17.12-.33,0-.42-.16-.41-.46,0-1.61,0-3.22,0-4.84,0-.36.14-.47.49-.46C119,175.85,120,175.84,121.06,175.84Z"/><path class="cls-2" d="M121.06,167.44a19.35,19.35,0,0,1,3.08.12,2,2,0,0,1,1.85,2.21,2.06,2.06,0,0,1-1.9,2.19,35,35,0,0,1-5.12.13c-1.33,0-1.33,0-1.33-1.3,0-.84,0-1.69,0-2.53,0-.63.1-.89.8-.83S120.06,167.44,121.06,167.44Z"/><path class="cls-2" d="M143.74,143.9a5.92,5.92,0,0,1,.57-2.9,3.3,3.3,0,0,1,5.72-.2,6.72,6.72,0,0,1,0,6.37,2.86,2.86,0,0,1-2.81,1.48,3.09,3.09,0,0,1-2.85-1.71A6.16,6.16,0,0,1,143.74,143.9Z"/><path class="cls-2" d="M106.92,137.28c0-.85,0-1.69,0-2.54,0-.4.09-.57.54-.56,1.49,0,3,0,4.47,0a2.56,2.56,0,0,1,2.66,2.39,5,5,0,0,1-.06,1.85,2.38,2.38,0,0,1-2.44,2c-1.59.09-3.18,0-4.77.05-.36,0-.4-.19-.39-.47Z"/><path class="cls-2" d="M131.49,145.6a5.55,5.55,0,0,1-.27,1.76,3.6,3.6,0,0,1-4.49,2,1.69,1.69,0,0,1-1.14-1.51,1.81,1.81,0,0,1,.76-1.88,5,5,0,0,1,1.94-.7,12.5,12.5,0,0,0,2.5-.69c.63-.28.77-.09.7.51A3.93,3.93,0,0,0,131.49,145.6Z"/><path class="cls-2" d="M156.6,203.68c0-1.06,0-2.13,0-3.19,0-.43.14-.55.55-.53.64,0,1.29,0,1.93,0a2.4,2.4,0,0,1,2.5,1.91,6.57,6.57,0,0,1,0,3.52,2.54,2.54,0,0,1-2.62,2c-.76,0-1.72.31-2.23-.11s-.11-1.35-.14-2.05C156.58,204.73,156.6,204.2,156.6,203.68Z"/></g></g></svg>