<svg xmlns="http://www.w3.org/2000/svg" xmlns:xlink="http://www.w3.org/1999/xlink" viewBox="0 0 147.57 296.96"><defs><style>.cls-1{fill:url(#radial-gradient);}.cls-2{fill:url(#radial-gradient-2);}.cls-3{fill:#006339;}.cls-4{fill:#00a84a;}.cls-5{fill:#f9e400;}.cls-6{fill:#9f7a22;}</style><radialGradient id="radial-gradient" cx="134.04" cy="81.48" r="53.87" gradientUnits="userSpaceOnUse"><stop offset="0" stop-color="#fff"/><stop offset="1"/></radialGradient><radialGradient id="radial-gradient-2" cx="64.77" cy="18.76" r="75.7" xlink:href="#radial-gradient"/></defs><g id="Layer_2" data-name="Layer 2"><g id="Layer_2-2" data-name="Layer 2"><path class="cls-1" d="M147.57,97.85a29.75,29.75,0,1,1-29.73-29.72A29.6,29.6,0,0,1,147.57,97.85Z"/><path class="cls-2" d="M83.78,41.77A41.8,41.8,0,1,1,42,0,41.58,41.58,0,0,1,83.78,41.77Z"/><polygon class="cls-3" points="144.11 136.36 144.11 261.3 113.57 270.99 88.52 263.08 88.52 198.5 110.13 198.5 110.13 176.81 81.18 154.51 81.18 130.48 88.16 127.05 92.49 130.09 113.57 119.9 144.11 136.36"/><polygon class="cls-4" points="144.11 136.36 144.11 261.3 113.57 270.99 113.57 168.37 88.16 149.61 88.16 127.05 113.57 144.88 113.57 119.9 144.11 136.36"/><path class="cls-5" d="M110.13,176.81V198.5H81.18v81.87L36.44,297,0,280.37V94L36.44,74.75,81.18,94v60.5Z"/><path class="cls-6" d="M36.44,74.75V297L0,280.37V94Z"/><path class="cls-6" d="M81.18,198.5V178.14l28.95,20.36Z"/></g></g></svg>