<svg xmlns="http://www.w3.org/2000/svg" viewBox="0 0 395.99 296.99"><defs><style>.cls-1{fill:#0038a7;}.cls-2{fill:#fdfefe;}</style></defs><g id="Layer_2" data-name="Layer 2"><g id="Layer_2-2" data-name="Layer 2"><rect class="cls-1" width="395.99" height="296.99" rx="23.83"/><path class="cls-2" d="M393,25h2.46V42.11c-.41,0-.68-.06-.95-.06q-75.11,0-150.2.05a3.74,3.74,0,0,0-2.49,1.28Q168.46,132.65,95.23,222a3.37,3.37,0,0,1-2.93,1.39q-29.26,0-58.51.18L0,223.67v-17.3c.75,0,1.51-.1,2.26-.1,12.49,0,25,0,37.49,0a3.54,3.54,0,0,0,3.11-1.49c5-6.19,10.07-12.32,15.12-18.48Q123.35,106.68,188.68,27A4.93,4.93,0,0,1,193,24.94Q293,25,393,25Z"/><path class="cls-2" d="M393.08,49.46h2.36V66.73c-.28,0-.42-.07-.55-.07q-46.26,0-92.51,0a3.75,3.75,0,0,0-2.47,1.35q-73.14,89-146.17,178.11A4.33,4.33,0,0,1,150,248q-68.91,0-137.83.09c-4.05,0-8.09-.06-12.14-.1v-17.3a4.36,4.36,0,0,0,.62.07q47.58,0,95.18-.05a3.79,3.79,0,0,0,2.48-1.35c7.15-8.6,14.22-17.27,21.32-25.92q62.51-76.17,125-152.35A4,4,0,0,1,248,49.42Q320.56,49.5,393.08,49.46Z"/><path class="cls-2" d="M393.07,74.07h2.37V91.13h-2.25c-13.8,0-27.6,0-41.4,0a4.75,4.75,0,0,0-4.13,2Q274.84,181.9,202,270.72a4.19,4.19,0,0,1-3.62,1.73q-98.05-.07-196.1,0c-.75,0-1.5-.09-2.25-.13V255.39l2.47,0q75.41,0,150.81,0a3.79,3.79,0,0,0,3.32-1.5q20.06-24.55,40.2-49,52.9-64.46,105.77-129a4.56,4.56,0,0,1,4-1.85Q349.8,74.12,393.07,74.07Z"/></g></g></svg>